<?xml version="1.0" standalone="no"?>
<!DOCTYPE svg PUBLIC "-//W3C//DTD SVG 20010904//EN"
 "http://www.w3.org/TR/2001/REC-SVG-20010904/DTD/svg10.dtd">
<svg version="1.0" xmlns="http://www.w3.org/2000/svg"
 width="512.000000pt" height="512.000000pt" viewBox="0 0 512.000000 512.000000"
 preserveAspectRatio="xMidYMid meet">

<g transform="translate(0.000000,512.000000) scale(0.100000,-0.100000)"
fill="#000000" stroke="none">
<path d="M2155 4720 c-137 -22 -202 -36 -238 -49 -16 -6 -39 -11 -52 -11 -13
0 -36 -6 -52 -14 -15 -8 -46 -19 -68 -26 -22 -7 -58 -20 -80 -30 -22 -10 -56
-25 -75 -33 -113 -49 -221 -107 -315 -170 -106 -71 -118 -81 -231 -174 -129
-107 -212 -190 -285 -285 -28 -38 -55 -68 -60 -68 -5 0 -9 -6 -10 -12 0 -7
-16 -33 -35 -58 -19 -25 -41 -58 -48 -75 -8 -16 -23 -41 -33 -55 -36 -47 -142
-279 -187 -410 -107 -310 -142 -690 -91 -1014 15 -100 51 -265 65 -301 5 -11
16 -45 25 -75 27 -90 70 -187 130 -295 12 -22 39 -71 60 -110 20 -38 55 -93
76 -122 22 -29 39 -56 39 -62 0 -5 4 -11 8 -13 4 -2 28 -30 54 -64 63 -82 285
-305 339 -340 24 -16 49 -33 54 -37 175 -137 446 -282 648 -347 51 -16 110
-32 132 -36 22 -4 47 -10 55 -14 47 -24 444 -62 468 -44 13 9 14 269 9 2177
-3 1192 -9 2171 -12 2177 -9 15 -165 10 -290 -10z m-586 -1797 c16 -14 21 -31
22 -76 3 -78 -9 -87 -116 -80 -114 8 -117 10 -113 91 l3 67 80 6 c44 3 85 6
91 7 7 1 21 -6 33 -15z m-440 -13 c29 -10 63 -27 74 -37 35 -31 57 -93 57
-162 0 -73 -18 -111 -80 -164 l-39 -33 40 -54 c47 -62 132 -238 125 -257 -3
-7 -16 -14 -28 -14 -77 -5 -215 -5 -226 -1 -7 2 -27 32 -43 66 -78 158 -123
221 -156 214 -14 -3 -17 -20 -20 -133 -2 -71 -6 -135 -8 -141 -4 -12 -205 -11
-225 1 -11 7 -15 717 -3 728 3 4 113 7 242 7 210 0 242 -2 290 -20z m444 -185
c16 -11 17 -37 15 -271 l-3 -259 -60 -5 c-33 -3 -84 -3 -112 -2 l-53 4 0 264
0 265 23 8 c34 13 171 10 190 -4z m557 -6 c115 -52 173 -170 154 -312 -8 -53
-58 -144 -89 -161 -11 -6 -22 -14 -25 -17 -3 -4 -24 -16 -47 -28 -34 -17 -60
-21 -135 -21 -117 0 -154 11 -217 60 -70 55 -93 105 -99 208 -4 73 -2 90 18
130 28 58 54 87 105 120 56 35 78 40 190 41 80 0 109 -3 145 -20z"/>
<path d="M841 2742 c-16 -30 -14 -68 6 -87 13 -14 27 -16 72 -10 127 16 122
100 -7 112 -53 5 -61 3 -71 -15z"/>
<path d="M1935 2558 c-25 -22 -44 -76 -45 -128 0 -40 52 -90 93 -90 42 0 63
22 76 79 13 59 -9 133 -44 149 -37 17 -50 15 -80 -10z"/>
<path d="M2627 4713 c-33 -5 -45 -28 -28 -54 7 -12 7 -19 1 -19 -5 0 -10 -25
-10 -55 0 -57 5 -62 60 -64 8 0 29 -3 46 -7 35 -7 77 11 71 29 -2 7 -21 15
-43 18 l-39 6 36 2 c43 1 49 12 49 87 l0 54 -44 0 c-24 0 -50 2 -58 3 -7 2
-26 2 -41 0z m88 -82 c3 -6 -4 -15 -15 -21 -17 -9 -20 -8 -20 10 0 20 24 28
35 11z"/>
<path d="M2920 4680 c5 -17 5 -32 -1 -35 -5 -4 -8 -31 -8 -61 2 -77 18 -83
150 -58 24 5 27 10 32 67 3 34 3 74 0 88 -5 26 -6 27 -93 28 l-89 2 9 -31z
m120 0 c0 -5 -4 -10 -10 -10 -5 0 -10 5 -10 10 0 6 5 10 10 10 6 0 10 -4 10
-10z m-57 -61 c-8 -8 -16 -8 -30 0 -16 9 -14 10 12 11 21 0 26 -3 18 -11z m47
-53 c0 -9 -39 -13 -51 -5 -10 6 -4 9 19 9 17 0 32 -2 32 -4z"/>
<path d="M2597 4393 c-3 -5 -4 -47 -4 -95 1 -81 2 -87 24 -99 19 -10 28 -10
41 -1 41 29 63 36 72 23 4 -8 13 -10 19 -6 9 5 9 11 2 19 -10 12 -8 36 14 127
6 22 3 27 -17 32 -32 9 -146 9 -151 0z m73 -42 c0 -25 -9 -30 -40 -20 l-25 7
23 7 c12 4 22 11 22 16 0 5 5 9 10 9 6 0 10 -9 10 -19z m60 -66 c0 -16 -9 -19
-35 -9 -13 5 -14 8 -3 15 20 13 38 11 38 -6z"/>
<path d="M3262 4388 c-5 -7 -9 -52 -9 -100 1 -93 13 -114 47 -83 10 9 20 11
26 6 5 -5 30 -7 57 -4 l47 6 0 87 0 88 -31 6 c-52 10 -126 7 -137 -6z m123
-48 c3 -5 -3 -10 -15 -10 -12 0 -18 5 -15 10 3 6 10 10 15 10 5 0 12 -4 15
-10z m-69 -67 c-10 -10 -19 5 -10 18 6 11 8 11 12 0 2 -7 1 -15 -2 -18z"/>
<path d="M2645 4072 c-4 -4 -17 -7 -28 -7 -20 0 -22 -6 -25 -70 -5 -114 -4
-115 82 -115 89 0 104 11 86 65 -6 19 -9 48 -5 65 4 16 4 38 0 49 -5 16 -11
18 -37 11 -18 -6 -38 -6 -48 0 -10 5 -21 6 -25 2z m9 -55 c-9 -5 -15 -21 -14
-40 3 -53 1 -68 -10 -62 -11 7 -14 94 -4 119 5 12 9 13 25 3 16 -10 17 -13 3
-20z"/>
<path d="M2927 4073 c-15 -4 -17 -16 -16 -89 2 -102 6 -105 109 -103 64 1 70
3 71 23 0 11 2 46 4 76 6 82 3 86 -58 87 -28 0 -61 3 -72 6 -11 3 -28 3 -38 0z
m43 -49 c0 -2 -9 -4 -21 -4 -11 0 -18 4 -14 10 5 8 35 3 35 -6z"/>
<path d="M3620 4071 c-24 -7 -25 -9 -23 -91 2 -45 5 -85 7 -88 10 -9 96 -14
130 -8 l36 7 0 88 0 88 -46 7 c-54 7 -70 7 -104 -3z m103 -52 c-5 -5 -19 -5
-33 -2 -22 6 -22 7 -4 13 23 9 49 1 37 -11z m3 -70 c3 -6 2 -15 -2 -19 -12
-12 -38 5 -30 19 9 14 23 14 32 0z"/>
<path d="M2597 3746 c-2 -6 0 -22 5 -35 5 -15 4 -37 -3 -58 -6 -19 -8 -45 -5
-59 6 -23 10 -24 86 -24 47 0 80 4 80 10 0 6 -5 10 -10 10 -6 0 -4 13 5 31 17
32 8 59 -21 59 -8 0 -14 4 -14 10 0 5 6 7 13 4 19 -7 41 42 24 53 -19 12 -156
11 -160 -1z m74 -129 c-13 -13 -31 0 -24 19 4 11 8 12 20 3 9 -8 10 -16 4 -22z"/>
<path d="M2927 3747 c-11 -8 -15 -20 -11 -34 7 -27 29 -30 42 -7 12 22 55 9
50 -14 -3 -13 -13 -16 -46 -14 -44 3 -63 -13 -46 -40 5 -7 7 -25 5 -40 -3 -31
-6 -30 94 -28 38 1 72 6 75 11 6 8 3 160 -2 164 -2 1 -35 5 -74 9 -49 4 -75 2
-87 -7z m133 -117 c0 -5 -15 -9 -32 -9 l-33 1 30 8 c17 4 31 8 33 9 1 0 2 -3
2 -9z"/>
<path d="M3335 3753 c-16 -3 -35 -9 -41 -14 -6 -5 -18 -7 -26 -4 -12 5 -14 -9
-14 -77 l1 -83 88 -3 87 -3 0 91 c0 82 -2 90 -19 90 -11 0 -25 2 -33 3 -7 2
-26 2 -43 0z m85 -58 c0 -8 -7 -15 -15 -15 -8 0 -15 7 -15 15 0 8 7 15 15 15
8 0 15 -7 15 -15z m-90 -61 c0 -8 -4 -14 -10 -14 -5 0 -10 9 -10 21 0 11 5 17
10 14 6 -3 10 -13 10 -21z m47 -10 c-3 -3 -12 -4 -19 -1 -8 3 -5 6 6 6 11 1
17 -2 13 -5z"/>
<path d="M2937 3441 c-22 -15 -25 -20 -14 -29 9 -8 24 -9 48 -2 42 12 39 13
39 -5 0 -15 -12 -18 -67 -15 l-32 1 4 -62 c3 -34 8 -66 13 -71 5 -5 44 -8 88
-6 l79 3 0 70 c1 103 0 104 -56 111 -27 4 -52 11 -55 15 -7 12 -14 10 -47 -10z
m123 -128 c0 -21 -3 -24 -9 -14 -5 8 -7 20 -4 28 8 21 13 15 13 -14z"/>
<path d="M2705 3440 c-4 -6 -29 -9 -56 -8 l-49 3 -6 -92 -5 -93 85 0 c67 0 85
3 90 16 6 17 -18 59 -43 74 -14 8 -13 9 4 10 33 1 51 16 37 32 -7 8 -7 19 -2
28 11 18 -6 40 -31 40 -10 0 -21 -5 -24 -10z m15 -40 c0 -5 -2 -10 -4 -10 -3
0 -8 5 -11 10 -3 6 -1 10 4 10 6 0 11 -4 11 -10z m-20 -79 c0 -6 -4 -13 -10
-16 -5 -3 -10 1 -10 9 0 9 5 16 10 16 6 0 10 -4 10 -9z m-60 -37 c0 -8 -4 -12
-10 -9 -5 3 -10 10 -10 16 0 5 5 9 10 9 6 0 10 -7 10 -16z"/>
<path d="M4330 3443 c-72 -4 -90 -14 -70 -38 10 -12 10 -15 0 -15 -10 0 -11
-14 -7 -56 8 -78 16 -85 103 -83 84 2 84 1 84 111 0 56 -3 69 -19 78 -11 5
-21 9 -23 8 -2 -1 -32 -3 -68 -5z m70 -48 c0 -16 -27 -19 -80 -9 -42 9 -19 24
38 24 31 0 42 -4 42 -15z m0 -85 c0 -20 -5 -30 -14 -30 -12 0 -13 6 -5 30 6
17 13 30 15 30 2 0 4 -13 4 -30z"/>
<path d="M3257 3433 c-3 -5 -4 -46 -4 -93 l2 -85 55 -3 c30 -1 70 0 88 3 l32
6 0 89 0 90 -34 0 c-19 0 -46 -4 -60 -10 -16 -6 -27 -6 -31 0 -7 12 -42 13
-48 3z m158 -63 c-3 -5 -10 -10 -16 -10 -5 0 -9 5 -9 10 0 6 7 10 16 10 8 0
12 -4 9 -10z"/>
<path d="M3931 3343 l0 -94 88 2 89 1 1 71 1 71 -25 -24 c-17 -16 -23 -30 -19
-45 9 -35 -13 -39 -31 -5 -9 17 -11 30 -5 30 5 0 10 7 10 15 0 8 6 15 13 15
18 0 61 46 50 53 -5 4 -46 6 -91 5 l-81 -1 0 -94z m49 30 c0 -5 -5 -15 -10
-23 -8 -12 -10 -11 -10 8 0 12 5 22 10 22 6 0 10 -3 10 -7z"/>
<path d="M2594 3116 c-3 -7 -4 -48 -2 -92 l3 -79 88 -3 c67 -2 87 0 87 11 0 7
-6 19 -12 25 -10 10 -10 17 0 33 7 11 10 25 6 31 -4 6 -7 27 -8 46 l-1 36 -78
2 c-56 2 -80 -1 -83 -10z m50 -22 c13 -5 13 -8 1 -20 -19 -19 -25 -18 -25 6 0
22 1 23 24 14z m56 -8 c0 -11 -19 -15 -25 -6 -3 5 1 10 9 10 9 0 16 -2 16 -4z
m-60 -56 c0 -5 -2 -10 -4 -10 -3 0 -8 5 -11 10 -3 6 -1 10 4 10 6 0 11 -4 11
-10z m0 -56 c0 -8 -5 -12 -10 -9 -6 4 -8 11 -5 16 9 14 15 11 15 -7z"/>
<path d="M2930 3122 c-16 -5 -12 -32 5 -32 8 0 15 -5 15 -11 0 -6 -6 -9 -14
-6 -19 8 -27 -29 -14 -59 8 -18 8 -27 -3 -40 -23 -28 8 -39 93 -36 l76 4 4 81
c2 45 3 87 0 94 -3 10 -132 14 -162 5z m130 -43 c0 -11 -3 -18 -7 -16 -5 2
-17 7 -28 11 -16 6 -17 9 -5 16 24 16 40 11 40 -11z m8 -77 c2 -7 -3 -12 -12
-12 -9 0 -16 7 -16 16 0 17 22 14 28 -4z m-58 -2 c0 -5 -4 -10 -9 -10 -6 0
-13 5 -16 10 -3 6 1 10 9 10 9 0 16 -4 16 -10z"/>
<path d="M2599 2793 c0 -10 -4 -45 -8 -78 -12 -87 -7 -92 86 -89 l78 2 0 63
c0 35 4 70 9 77 17 28 -14 42 -90 42 -63 0 -74 -2 -75 -17z m51 -103 c0 -5 -7
-10 -16 -10 -8 0 -12 5 -9 10 3 6 10 10 16 10 5 0 9 -4 9 -10z"/>
<path d="M2918 2801 c-7 -27 -1 -171 7 -175 11 -4 156 2 161 6 1 2 4 41 5 88
l4 85 -88 1 c-48 1 -88 -2 -89 -5z m117 -63 c-34 -9 -67 -2 -47 11 7 4 27 5
45 3 l32 -5 -30 -9z m-25 -73 c0 -8 -9 -15 -20 -15 -22 0 -27 15 -7 23 21 9
27 7 27 -8z"/>
<path d="M3252 2719 c1 -97 12 -117 47 -85 10 9 21 12 27 7 5 -5 30 -11 57
-15 l47 -6 0 95 0 95 -89 0 -89 0 0 -91z m106 28 c2 -10 -3 -17 -11 -17 -8 0
-17 -7 -21 -15 -7 -19 -36 -8 -36 15 0 17 36 41 55 36 6 -1 11 -10 13 -19z
m52 -57 c0 -5 -4 -10 -10 -10 -5 0 -10 5 -10 10 0 6 5 10 10 10 6 0 10 -4 10
-10z"/>
<path d="M3596 2798 c-2 -7 -3 -47 -3 -88 l2 -75 75 -6 c41 -3 81 -4 88 -1 8
3 12 31 12 93 l0 89 -85 0 c-60 0 -87 -4 -89 -12z m69 -57 c-9 -16 -25 -3 -18
15 4 10 9 12 15 6 6 -6 7 -15 3 -21z"/>
<path d="M2594 2489 c-7 -12 -2 -155 5 -168 5 -8 34 -11 87 -9 l79 3 -2 40
c-1 22 -3 45 -4 50 -1 6 1 21 5 35 3 14 3 30 -1 36 -9 13 -162 24 -169 13z
m75 -51 l26 -11 -25 -7 c-17 -4 -25 -13 -24 -28 0 -12 -3 -22 -7 -22 -12 0
-16 23 -11 65 3 22 7 34 10 27 2 -7 16 -18 31 -24z m21 -58 c0 -5 -5 -10 -11
-10 -5 0 -7 5 -4 10 3 6 8 10 11 10 2 0 4 -4 4 -10z"/>
<path d="M2930 2490 c-12 -7 -16 -27 -15 -92 l0 -83 88 -2 87 -2 1 42 c0 23 1
65 2 92 2 45 0 50 -18 48 -58 -6 -92 -6 -110 0 -11 3 -27 2 -35 -3z"/>
<path d="M3263 2494 c-9 -4 -13 -33 -13 -94 l0 -88 63 -4 c34 -1 74 -2 90 0
l27 3 0 90 0 89 -57 0 c-32 0 -67 2 -78 5 -11 2 -26 2 -32 -1z m79 -76 c-7 -7
-12 -27 -12 -45 0 -22 -5 -33 -14 -33 -20 0 -23 26 -12 81 9 46 10 46 30 28
15 -15 17 -22 8 -31z m68 -63 c0 -8 -4 -15 -10 -15 -5 0 -10 7 -10 15 0 8 5
15 10 15 6 0 10 -7 10 -15z"/>
<path d="M3596 2460 c-3 -17 -1 -41 4 -55 7 -18 6 -31 -2 -44 -6 -10 -8 -26
-5 -35 6 -14 19 -16 83 -14 89 2 109 15 100 61 -3 16 -6 49 -6 72 l0 43 -84 1
-84 1 -6 -30z m120 -37 c-10 -10 -19 5 -10 18 6 11 8 11 12 0 2 -7 1 -15 -2
-18z m13 -54 c-15 -9 -32 -2 -24 11 3 5 13 6 21 3 12 -4 13 -8 3 -14z"/>
<path d="M4610 2456 c0 -19 -5 -38 -10 -41 -7 -5 -8 -11 -1 -19 5 -6 11 -29
13 -50 l3 -39 65 0 c36 1 72 1 81 2 13 1 18 16 24 70 11 109 9 111 -91 111
l-84 0 0 -34z m50 -31 c0 -14 -4 -25 -10 -25 -11 0 -14 33 -3 43 11 11 13 8
13 -18z"/>
<path d="M2593 2090 c2 -70 5 -91 17 -95 26 -7 136 -9 148 -1 15 9 4 36 -16
36 -13 0 -12 3 3 20 10 11 13 20 7 20 -7 0 -12 7 -12 15 0 8 7 15 15 15 9 0
15 9 15 24 0 52 -6 56 -95 56 l-84 0 2 -90z m97 -53 c9 -3 4 -6 -12 -6 -27 -1
-35 8 -21 22 4 4 9 3 12 -1 3 -5 13 -12 21 -15z"/>
<path d="M2922 2168 c-14 -14 -16 -128 -2 -128 5 0 7 -7 4 -15 -12 -31 11 -40
93 -35 73 5 78 6 77 28 0 12 -1 54 -2 92 l-2 70 -78 0 c-47 0 -83 -5 -90 -12z
m68 -128 c12 -8 9 -10 -12 -10 -16 0 -28 5 -28 10 0 13 20 13 40 0z"/>
<path d="M2622 1855 c-23 -10 -26 -17 -27 -65 -1 -30 -5 -67 -9 -82 -10 -35
19 -52 40 -23 12 16 14 17 14 3 0 -23 18 -32 35 -18 11 10 18 10 29 1 27 -22
74 6 61 37 -5 9 -7 40 -7 67 2 88 -1 93 -59 92 -28 -1 -63 -7 -77 -12z m85
-51 c-3 -3 -12 -4 -19 -1 -8 3 -5 6 6 6 11 1 17 -2 13 -5z m-7 -69 c-7 -8 -19
-15 -27 -15 -13 0 -13 3 -3 15 7 8 19 15 27 15 13 0 13 -3 3 -15z"/>
<path d="M2931 1851 c-5 -9 -11 -51 -14 -93 l-4 -76 32 -6 c18 -4 44 -2 58 3
14 5 27 8 28 7 2 -2 16 -6 30 -10 23 -5 28 -2 33 19 3 13 3 56 0 94 -7 68 -7
69 -38 74 -17 3 -37 1 -45 -3 -8 -4 -27 -4 -43 0 -22 7 -30 5 -37 -9z m52 -80
c3 -11 2 -22 -1 -25 -7 -8 -31 27 -26 36 9 14 22 8 27 -11z m77 -43 c0 -16 -3
-19 -11 -11 -6 6 -8 16 -5 22 11 17 16 13 16 -11z"/>
<path d="M3267 1862 c-24 -5 -24 -87 1 -102 16 -10 16 -10 0 -20 -10 -6 -18
-22 -18 -35 0 -33 28 -47 60 -30 15 8 29 10 36 4 5 -4 27 -6 47 -2 l37 6 0 88
c0 50 -4 89 -10 89 -5 0 -19 -10 -30 -22 l-21 -23 -5 22 c-4 16 -15 22 -43 25
-20 2 -44 2 -54 0z m143 -86 c0 -19 -4 -38 -10 -41 -6 -4 -10 10 -10 34 0 23
5 41 10 41 6 0 10 -15 10 -34z m-90 -6 c0 -5 -2 -10 -4 -10 -3 0 -8 5 -11 10
-3 6 -1 10 4 10 6 0 11 -4 11 -10z"/>
<path d="M3650 1861 l-55 -6 -2 -80 c-2 -101 8 -115 74 -105 25 4 53 6 62 4
35 -9 44 11 42 92 -1 82 -13 106 -50 102 -9 -1 -41 -4 -71 -7z m15 -51 c3 -5
-3 -10 -15 -10 -12 0 -18 5 -15 10 3 6 10 10 15 10 5 0 12 -4 15 -10z m75 -59
c0 -11 -26 -22 -34 -14 -12 12 -5 23 14 23 11 0 20 -4 20 -9z"/>
<path d="M3934 1855 c-3 -6 -4 -50 -2 -96 l3 -84 43 3 c23 2 42 0 42 -5 0 -16
70 -2 79 16 5 9 8 52 7 96 l-1 79 -83 2 c-56 0 -85 -3 -88 -11z m46 -74 c0 -6
-4 -13 -10 -16 -5 -3 -10 1 -10 9 0 9 5 16 10 16 6 0 10 -4 10 -9z m97 -57
c-3 -3 -12 -4 -19 -1 -8 3 -5 6 6 6 11 1 17 -2 13 -5z"/>
<path d="M4266 1861 c-3 -4 -4 -28 -4 -54 0 -26 -3 -65 -7 -86 l-6 -39 48 -6
c26 -3 66 -4 88 -3 l40 2 5 51 c3 29 4 72 2 97 l-4 45 -79 0 c-44 -1 -81 -4
-83 -7z m61 -137 c-3 -3 -12 -4 -19 -1 -8 3 -5 6 6 6 11 1 17 -2 13 -5z"/>
<path d="M3263 1553 c-7 -3 -13 -20 -13 -39 0 -27 5 -37 23 -44 15 -6 17 -9 6
-9 -17 -1 -29 -29 -29 -67 0 -30 44 -46 116 -42 l59 3 3 92 c3 89 2 93 -20 97
-39 8 -132 14 -145 9z m59 -55 c-9 -9 -12 -7 -12 12 0 19 3 21 12 12 9 -9 9
-15 0 -24z m88 -37 c0 -6 -4 -13 -10 -16 -5 -3 -10 1 -10 9 0 9 5 16 10 16 6
0 10 -4 10 -9z m-85 -48 c-7 -17 -8 -17 -15 2 -9 24 -2 41 12 27 6 -6 7 -19 3
-29z"/>
<path d="M2597 1543 c-4 -3 -7 -44 -7 -90 0 -78 2 -84 23 -92 12 -5 27 -5 33
0 6 5 33 8 60 7 l48 -3 3 93 3 92 -78 0 c-43 0 -82 -3 -85 -7z m43 -53 c0 -5
-2 -10 -4 -10 -3 0 -8 5 -11 10 -3 6 -1 10 4 10 6 0 11 -4 11 -10z m0 -60 c0
-5 -2 -10 -4 -10 -3 0 -8 5 -11 10 -3 6 -1 10 4 10 6 0 11 -4 11 -10z"/>
<path d="M2928 1538 c-7 -23 -1 -149 8 -158 5 -5 42 -12 82 -16 l72 -7 0 97 0
96 -79 0 c-54 0 -80 -4 -83 -12z m92 -128 c0 -12 -28 -25 -36 -17 -9 9 6 27
22 27 8 0 14 -5 14 -10z"/>
<path d="M2596 1209 c-3 -17 -6 -48 -6 -69 0 -21 3 -52 6 -69 l7 -31 73 0 c41
0 74 3 75 8 0 4 2 42 4 84 3 60 0 81 -11 93 -19 18 -70 20 -78 3 -5 -10 -7
-10 -12 0 -3 6 -16 12 -29 12 -17 0 -24 -7 -29 -31z m61 -101 c-3 -7 -5 -2 -5
12 0 14 2 19 5 13 2 -7 2 -19 0 -25z"/>
<path d="M3256 1223 c-3 -8 -6 -52 -5 -98 l1 -84 66 0 c116 0 112 -4 112 105
l0 94 -84 -1 c-65 -1 -86 -4 -90 -16z"/>
<path d="M3936 1233 c-9 -9 -7 -166 2 -180 10 -15 141 -16 160 -1 8 7 12 38
12 88 0 50 -4 81 -12 88 -14 11 -151 16 -162 5z"/>
<path d="M2931 905 c-16 -20 -22 -67 -10 -81 7 -8 9 -29 6 -49 -7 -45 10 -55
97 -55 56 0 66 3 67 18 3 41 1 163 -2 166 -10 10 -151 11 -158 1z m126 -87
c-3 -7 -5 -2 -5 12 0 14 2 19 5 13 2 -7 2 -19 0 -25z m-47 -32 c0 -11 -19 -15
-25 -6 -3 5 1 10 9 10 9 0 16 -2 16 -4z"/>
<path d="M2591 828 c1 -46 4 -89 6 -95 4 -9 30 -13 84 -13 l80 0 -2 48 c-1 26
-3 68 -6 95 l-5 47 -79 0 -79 0 1 -82z m55 -4 c-5 -13 -10 -14 -18 -6 -6 6 -8
18 -4 28 5 13 10 14 18 6 6 -6 8 -18 4 -28z m-6 -34 c0 -5 -4 -10 -10 -10 -5
0 -10 5 -10 10 0 6 5 10 10 10 6 0 10 -4 10 -10z"/>
<path d="M2693 593 c-47 -5 -52 -9 -25 -29 12 -9 14 -16 7 -23 -13 -13 -55 13
-55 35 0 8 -7 14 -15 14 -17 0 -19 -23 -9 -119 l7 -62 76 3 76 3 7 55 c4 30 5
62 1 70 -3 8 -6 24 -7 34 -1 22 -6 24 -63 19z"/>
<path d="M2994 593 l-82 -4 -1 -72 c-1 -97 6 -104 100 -105 l76 -1 7 85 c7 80
4 107 -12 102 -4 -1 -44 -4 -88 -5z"/>
</g>
</svg>
